<?xml version="1.0" encoding="UTF-8"?>
<svg id="Warstwa_1" xmlns="http://www.w3.org/2000/svg" version="1.1" xmlns:xlink="http://www.w3.org/1999/xlink" viewBox="0 0 250 60.97">
  <!-- Generator: Adobe Illustrator 30.0.0, SVG Export Plug-In . SVG Version: 2.1.1 Build 123)  -->
  <defs>
    <style>
      .st0 {
        fill: #0e0d0c;
      }

      .st1 {
        opacity: .98;
      }

      .st2 {
        fill: #f2f2f2;
      }

      .st3 {
        fill: url(#Gradient_bez_nazwy_6);
      }

      .st4 {
        fill: #cbb26a;
      }
    </style>
    <linearGradient id="Gradient_bez_nazwy_6" data-name="Gradient bez nazwy 6" x1="249.7" y1="30.3" x2="62.07" y2="41.47" gradientUnits="userSpaceOnUse">
      <stop offset=".41" stop-color="#cbb26a"/>
      <stop offset=".44" stop-color="#cdb674"/>
      <stop offset=".49" stop-color="#d6c490"/>
      <stop offset=".55" stop-color="#e3d9bd"/>
      <stop offset=".62" stop-color="#f2f2f2"/>
    </linearGradient>
  </defs>
  <rect class="st0" y="-.13" width="250" height="61.1"/>
  <g>
    <g class="st1">
      <path class="st2" d="M4.03,6.88h2.86v11.45h.09l9.33-11.45h3.23l-7.03,8.7,8.11,14.13h-3.19l-6.7-11.86-3.85,4.64v7.22h-2.86V6.88Z"/>
      <path class="st2" d="M24.11,6.88h2.86v22.82h-2.86V6.88Z"/>
      <path class="st2" d="M33.38,6.88h2.95l8.13,14.35,2.42,4.73h.14c-.14-2.3-.36-4.88-.36-7.26V6.88h2.71v22.82h-2.95l-8.13-14.36-2.42-4.71h-.14c.14,2.31.36,4.74.36,7.13v11.94h-2.71V6.88Z"/>
      <path class="st2" d="M60.46,9.34h-6.79v-2.46h16.44v2.46h-6.79v20.37h-2.86V9.34Z"/>
      <path class="st2" d="M74.4,6.88h7.03c4.57,0,7.86,1.67,7.86,6.42s-3.28,6.75-7.86,6.75h-4.17v9.65h-2.86V6.88ZM81.02,17.7c3.49,0,5.42-1.44,5.42-4.4s-1.92-4.07-5.42-4.07h-3.76v8.47h3.76ZM80.86,19.26l2.24-1.5,6.85,11.95h-3.24l-5.85-10.44Z"/>
      <path class="st2" d="M98.61,6.88h3.22l7.59,22.82h-3.03l-3.92-12.75c-.81-2.55-1.53-5.06-2.25-7.69h-.14c-.7,2.65-1.42,5.14-2.22,7.69l-3.96,12.75h-2.91l7.59-22.82ZM95.01,20.43h10.34v2.32h-10.34v-2.32Z"/>
      <path class="st2" d="M118.23,26.73l1.71-1.99c1.62,1.7,3.86,2.83,6.19,2.83,2.95,0,4.69-1.49,4.69-3.71,0-2.33-1.63-3.07-3.75-4.01l-3.23-1.45c-2.09-.91-4.55-2.52-4.55-5.88s2.99-6.06,7.07-6.06c2.66,0,5.03,1.17,6.61,2.83l-1.51,1.87c-1.38-1.32-3.02-2.14-5.1-2.14-2.52,0-4.19,1.29-4.19,3.33,0,2.2,1.96,3.02,3.72,3.78l3.2,1.41c2.6,1.13,4.63,2.71,4.63,6.1,0,3.61-2.93,6.49-7.65,6.49-3.15,0-5.89-1.31-7.85-3.39Z"/>
      <path class="st2" d="M141.56,20.86l-6.75-13.98h3.05l2.9,6.44c.72,1.68,1.4,3.27,2.17,4.98h.14c.78-1.71,1.55-3.29,2.24-4.98l2.9-6.44h2.96l-6.75,13.98v8.84h-2.86v-8.84Z"/>
      <path class="st2" d="M152.3,26.73l1.71-1.99c1.62,1.7,3.86,2.83,6.19,2.83,2.95,0,4.69-1.49,4.69-3.71,0-2.33-1.63-3.07-3.75-4.01l-3.23-1.45c-2.09-.91-4.55-2.52-4.55-5.88s2.99-6.06,7.07-6.06c2.66,0,5.03,1.17,6.61,2.83l-1.51,1.87c-1.38-1.32-3.02-2.14-5.1-2.14-2.52,0-4.19,1.29-4.19,3.33,0,2.2,1.96,3.02,3.72,3.78l3.2,1.41c2.6,1.13,4.63,2.71,4.63,6.1,0,3.61-2.93,6.49-7.65,6.49-3.15,0-5.89-1.31-7.85-3.39Z"/>
      <path class="st2" d="M176.46,9.34h-6.79v-2.46h16.44v2.46h-6.79v20.37h-2.86V9.34Z"/>
      <path class="st2" d="M190.4,6.88h12.94v2.46h-10.08v7.15h8.51v2.46h-8.51v8.3h10.43v2.46h-13.28V6.88Z"/>
      <path class="st2" d="M208.7,6.88h3.44l4.3,12.19c.54,1.56,1.05,3.17,1.6,4.76h.14c.54-1.59,1.01-3.2,1.55-4.76l4.25-12.19h3.44v22.82h-2.66v-12.57c0-1.99.22-4.73.36-6.75h-.14l-1.78,5.21-4.23,11.81h-1.89l-4.25-11.81-1.78-5.21h-.14c.14,2.02.36,4.76.36,6.75v12.57h-2.59V6.88Z"/>
      <path class="st2" d="M232.21,26.73l1.71-1.99c1.62,1.7,3.86,2.83,6.19,2.83,2.95,0,4.69-1.49,4.69-3.71,0-2.33-1.63-3.07-3.75-4.01l-3.23-1.45c-2.09-.91-4.55-2.52-4.55-5.88s2.99-6.06,7.07-6.06c2.66,0,5.03,1.17,6.61,2.83l-1.51,1.87c-1.38-1.32-3.02-2.14-5.1-2.14-2.52,0-4.19,1.29-4.19,3.33,0,2.2,1.96,3.02,3.72,3.78l3.2,1.41c2.6,1.13,4.63,2.71,4.63,6.1,0,3.61-2.93,6.49-7.65,6.49-3.15,0-5.89-1.31-7.85-3.39Z"/>
    </g>
    <g class="st1">
      <path class="st4" d="M69.69,41.24h-4.31v-1.56h10.43v1.56h-4.31v12.91h-1.81v-12.91Z"/>
      <path class="st4" d="M75.97,48.81c0-3.49,2.31-5.64,4.74-5.64,2.69,0,4.21,1.96,4.21,5.03,0,.38-.03.77-.08,1.03h-7.1c.13,2.27,1.49,3.74,3.5,3.74,1.01,0,1.84-.33,2.62-.86l.64,1.19c-.92.61-2.05,1.11-3.48,1.11-2.81,0-5.05-2.09-5.05-5.61ZM83.34,47.93c0-2.15-.95-3.32-2.6-3.32-1.48,0-2.81,1.21-3.02,3.32h5.62Z"/>
      <path class="st4" d="M86.73,48.81c0-3.58,2.38-5.64,5.08-5.64,1.38,0,2.34.58,3.08,1.26l-.91,1.2c-.61-.56-1.26-.95-2.09-.95-1.91,0-3.31,1.67-3.31,4.13s1.32,4.1,3.26,4.1c.96,0,1.82-.48,2.48-1.07l.77,1.22c-.95.86-2.14,1.36-3.41,1.36-2.81,0-4.95-2.06-4.95-5.61Z"/>
      <path class="st4" d="M97.41,38.44h1.78v4.3l-.06,2.2c.98-.97,2.05-1.77,3.5-1.77,2.22,0,3.22,1.46,3.22,4.19v6.79h-1.79v-6.56c0-2-.59-2.85-1.99-2.85-1.08,0-1.83.56-2.88,1.65v7.76h-1.78v-15.71Z"/>
      <path class="st4" d="M109.21,43.43h1.47l.15,1.55h.06c1.01-1,2.09-1.81,3.54-1.81,2.22,0,3.22,1.46,3.22,4.19v6.79h-1.79v-6.56c0-2-.59-2.85-1.99-2.85-1.08,0-1.83.56-2.88,1.65v7.76h-1.78v-10.72Z"/>
      <path class="st4" d="M120.29,48.81c0-3.58,2.3-5.64,4.89-5.64s4.89,2.06,4.89,5.64-2.3,5.61-4.89,5.61-4.89-2.06-4.89-5.61ZM128.22,48.81c0-2.46-1.23-4.13-3.04-4.13s-3.04,1.67-3.04,4.13,1.23,4.1,3.04,4.1,3.04-1.64,3.04-4.1Z"/>
      <path class="st4" d="M132.75,52v-13.56h1.79v13.69c0,.55.24.78.5.78.1,0,.19,0,.39-.04l.24,1.38c-.25.09-.56.17-1.03.17-1.34,0-1.89-.87-1.89-2.42Z"/>
      <path class="st4" d="M137.5,48.81c0-3.58,2.3-5.64,4.89-5.64s4.89,2.06,4.89,5.64-2.3,5.61-4.89,5.61-4.89-2.06-4.89-5.61ZM145.43,48.81c0-2.46-1.23-4.13-3.04-4.13s-3.04,1.67-3.04,4.13,1.23,4.1,3.04,4.1,3.04-1.64,3.04-4.1Z"/>
      <path class="st4" d="M149.24,56.21c0-.92.58-1.78,1.55-2.42v-.09c-.54-.34-.94-.92-.94-1.76,0-.89.61-1.6,1.16-1.99v-.09c-.7-.56-1.37-1.6-1.37-2.88,0-2.34,1.82-3.82,3.96-3.82.58,0,1.11.12,1.49.26h3.68v1.4h-2.17c.5.49.86,1.29.86,2.21,0,2.3-1.71,3.72-3.86,3.72-.51,0-1.09-.13-1.57-.36-.38.32-.67.68-.67,1.27,0,.68.43,1.16,1.85,1.16h2.05c2.45,0,3.68.78,3.68,2.56,0,1.99-2.07,3.71-5.33,3.71-2.58,0-4.36-1.03-4.36-2.87ZM157.19,55.65c0-.99-.74-1.33-2.13-1.33h-1.82c-.4,0-.9-.04-1.37-.16-.75.54-1.08,1.18-1.08,1.8,0,1.15,1.14,1.88,3.06,1.88,2.01,0,3.33-1.07,3.33-2.18ZM155.84,46.98c0-1.56-1-2.5-2.24-2.5s-2.24.93-2.24,2.5,1.03,2.55,2.24,2.55,2.24-.99,2.24-2.55Z"/>
      <path class="st4" d="M160.25,58.55l.35-1.45c.21.07.53.16.8.16,1.19,0,1.94-.97,2.38-2.3l.24-.79-4.23-10.74h1.84l2.15,5.93c.33.93.69,2.03,1.03,3.02h.09c.3-.97.6-2.07.89-3.02l1.88-5.93h1.75l-3.97,11.6c-.74,2.13-1.83,3.74-3.95,3.74-.49,0-.9-.09-1.24-.22Z"/>
      <path class="st4" d="M178.91,41.24h-4.31v-1.56h10.43v1.56h-4.31v12.91h-1.81v-12.91Z"/>
      <path class="st4" d="M185.17,51.37c0-2.33,1.98-3.5,6.48-4,0-1.38-.46-2.71-2.18-2.71-1.22,0-2.32.59-3.15,1.15l-.7-1.24c.97-.65,2.45-1.4,4.14-1.4,2.57,0,3.66,1.74,3.66,4.41v6.58h-1.47l-.15-1.28h-.06c-1,.85-2.18,1.55-3.49,1.55-1.77,0-3.09-1.11-3.09-3.05ZM191.64,51.53v-2.98c-3.54.43-4.73,1.31-4.73,2.68,0,1.22.81,1.71,1.85,1.71s1.86-.5,2.88-1.42Z"/>
      <path class="st4" d="M196.43,40.06c0-.71.54-1.17,1.23-1.17s1.23.46,1.23,1.17-.54,1.17-1.23,1.17-1.23-.49-1.23-1.17ZM196.75,43.43h1.79v10.72h-1.79v-10.72Z"/>
      <path class="st4" d="M202.09,52v-13.56h1.79v13.69c0,.55.24.78.5.78.1,0,.19,0,.39-.04l.24,1.38c-.25.09-.56.17-1.03.17-1.34,0-1.89-.87-1.89-2.42Z"/>
      <path class="st4" d="M206.84,48.81c0-3.58,2.3-5.64,4.89-5.64s4.89,2.06,4.89,5.64-2.3,5.61-4.89,5.61-4.89-2.06-4.89-5.61ZM214.77,48.81c0-2.46-1.23-4.13-3.04-4.13s-3.04,1.67-3.04,4.13,1.23,4.1,3.04,4.1,3.04-1.64,3.04-4.1Z"/>
      <path class="st4" d="M219.38,43.43h1.47l.15,1.95h.06c.73-1.36,1.81-2.22,3-2.22.47,0,.79.06,1.13.22l-.33,1.59c-.36-.12-.6-.18-1.02-.18-.89,0-1.96.65-2.67,2.47v6.88h-1.79v-10.72Z"/>
      <path class="st4" d="M225.91,48.81c0-3.49,2.31-5.64,4.74-5.64,2.69,0,4.21,1.96,4.21,5.03,0,.38-.03.77-.08,1.03h-7.1c.13,2.27,1.49,3.74,3.5,3.74,1.01,0,1.84-.33,2.62-.86l.64,1.19c-.92.61-2.05,1.11-3.48,1.11-2.81,0-5.05-2.09-5.05-5.61ZM233.28,47.93c0-2.15-.95-3.32-2.6-3.32-1.48,0-2.81,1.21-3.03,3.32h5.62Z"/>
      <path class="st4" d="M236.71,48.81c0-3.48,2.16-5.64,4.56-5.64,1.23,0,2.03.47,2.96,1.24l-.08-1.84v-4.13h1.79v15.71h-1.47l-.15-1.26h-.06c-.82.83-1.94,1.53-3.2,1.53-2.64,0-4.34-2.04-4.34-5.61ZM244.15,51.43v-5.62c-.9-.82-1.71-1.11-2.57-1.11-1.69,0-3.03,1.65-3.03,4.09,0,2.57,1.05,4.1,2.89,4.1.98,0,1.82-.48,2.71-1.46Z"/>
    </g>
    <line class="st3" x1="65.38" y1="35.85" x2="247.72" y2="35.85"/>
  </g>
</svg>