<?xml version="1.0" encoding="UTF-8"?>
<svg id="Warstwa_1" xmlns="http://www.w3.org/2000/svg" version="1.1" xmlns:xlink="http://www.w3.org/1999/xlink" viewBox="0 0 230.82 107.85">
  <!-- Generator: Adobe Illustrator 30.0.0, SVG Export Plug-In . SVG Version: 2.1.1 Build 123)  -->
  <defs>
    <style>
      .st0, .st1 {
        fill: #0e0d0c;
      }

      .st2 {
        opacity: .98;
      }

      .st3 {
        fill: none;
      }

      .st1 {
        stroke: #0e0d0c;
        stroke-miterlimit: 10;
      }

      .st4 {
        fill: url(#Gradient_bez_nazwy_11);
      }

      .st5 {
        fill: #cbb26a;
      }
    </style>
    <linearGradient id="Gradient_bez_nazwy_11" data-name="Gradient bez nazwy 11" x1="229.13" y1="53.8" x2="115.18" y2="60.59" gradientUnits="userSpaceOnUse">
      <stop offset=".41" stop-color="#cbb26a"/>
      <stop offset=".43" stop-color="#c0a966"/>
      <stop offset=".48" stop-color="#a4915c"/>
      <stop offset=".54" stop-color="#766b4b"/>
      <stop offset=".61" stop-color="#383734"/>
      <stop offset=".62" stop-color="#333"/>
    </linearGradient>
  </defs>
  <rect class="st3" x="-.15" width="231.12" height="108.31"/>
  <g>
    <polygon class="st0" points="41.05 5.88 32.93 46.57 27.08 75.85 21.24 104.91 .41 104.91 20.21 5.88 41.05 5.88"/>
    <polygon class="st0" points="96.59 2.91 60.55 43.63 45.13 56.68 30.12 72.88 35.97 43.6 73.79 2.91 96.59 2.91"/>
    <polygon class="st5" points="43.09 3.91 34.97 44.6 29.12 73.88 23.28 102.94 2.45 102.94 22.25 3.91 43.09 3.91"/>
    <polygon class="st1" points="82.64 102.94 61.01 102.94 45.13 57.68 60.55 44.63 82.64 102.94"/>
  </g>
  <g>
    <g class="st2">
      <path class="st0" d="M79.93,39.58h1.74v6.95h.06l5.67-6.95h1.96l-4.27,5.28,4.93,8.58h-1.94l-4.07-7.2-2.34,2.82v4.38h-1.74v-13.86Z"/>
      <path class="st0" d="M92.12,39.58h1.74v13.86h-1.74v-13.86Z"/>
      <path class="st0" d="M97.75,39.58h1.79l4.94,8.71,1.47,2.87h.08c-.09-1.4-.22-2.96-.22-4.41v-7.17h1.65v13.86h-1.79l-4.94-8.72-1.47-2.86h-.08c.09,1.4.22,2.88.22,4.33v7.25h-1.65v-13.86Z"/>
      <path class="st0" d="M114.2,41.07h-4.13v-1.49h9.99v1.49h-4.13v12.37h-1.74v-12.37Z"/>
      <path class="st0" d="M122.66,39.58h4.27c2.78,0,4.77,1.01,4.77,3.9s-2,4.1-4.77,4.1h-2.54v5.86h-1.74v-13.86ZM126.69,46.15c2.12,0,3.29-.87,3.29-2.67s-1.17-2.47-3.29-2.47h-2.29v5.14h2.29ZM126.59,47.1l1.36-.91,4.16,7.25h-1.97l-3.55-6.34Z"/>
      <path class="st0" d="M137.37,39.58h1.96l4.61,13.86h-1.84l-2.38-7.74c-.49-1.55-.93-3.07-1.37-4.67h-.08c-.42,1.61-.86,3.12-1.35,4.67l-2.4,7.74h-1.77l4.61-13.86ZM135.19,47.81h6.28v1.41h-6.28v-1.41Z"/>
      <path class="st0" d="M149.29,51.63l1.04-1.21c.98,1.04,2.34,1.72,3.76,1.72,1.79,0,2.85-.91,2.85-2.25,0-1.42-.99-1.87-2.28-2.44l-1.96-.88c-1.27-.55-2.76-1.53-2.76-3.57s1.82-3.68,4.29-3.68c1.62,0,3.06.71,4.02,1.72l-.92,1.13c-.83-.8-1.83-1.3-3.1-1.3-1.53,0-2.54.78-2.54,2.02,0,1.34,1.19,1.83,2.26,2.29l1.94.85c1.58.69,2.81,1.65,2.81,3.71,0,2.19-1.78,3.94-4.65,3.94-1.92,0-3.58-.79-4.77-2.06Z"/>
      <path class="st0" d="M163.46,48.07l-4.1-8.49h1.85l1.76,3.91c.44,1.02.85,1.99,1.32,3.02h.08c.47-1.04.94-2,1.36-3.02l1.76-3.91h1.8l-4.1,8.49v5.37h-1.74v-5.37Z"/>
      <path class="st0" d="M169.98,51.63l1.04-1.21c.98,1.04,2.34,1.72,3.76,1.72,1.79,0,2.85-.91,2.85-2.25,0-1.42-.99-1.87-2.28-2.44l-1.96-.88c-1.27-.55-2.76-1.53-2.76-3.57s1.82-3.68,4.29-3.68c1.62,0,3.06.71,4.02,1.72l-.92,1.13c-.83-.8-1.83-1.3-3.1-1.3-1.53,0-2.54.78-2.54,2.02,0,1.34,1.19,1.83,2.26,2.29l1.94.85c1.58.69,2.81,1.65,2.81,3.71,0,2.19-1.78,3.94-4.65,3.94-1.92,0-3.58-.79-4.77-2.06Z"/>
      <path class="st0" d="M184.65,41.07h-4.13v-1.49h9.99v1.49h-4.13v12.37h-1.74v-12.37Z"/>
      <path class="st0" d="M193.12,39.58h7.86v1.49h-6.13v4.34h5.17v1.49h-5.17v5.04h6.33v1.49h-8.07v-13.86Z"/>
      <path class="st0" d="M204.23,39.58h2.09l2.62,7.41c.33.95.64,1.93.97,2.89h.08c.33-.96.62-1.94.94-2.89l2.58-7.41h2.09v13.86h-1.61v-7.63c0-1.21.13-2.87.22-4.1h-.08l-1.08,3.16-2.57,7.17h-1.15l-2.58-7.17-1.08-3.16h-.08c.09,1.23.22,2.89.22,4.1v7.63h-1.57v-13.86Z"/>
      <path class="st0" d="M218.51,51.63l1.04-1.21c.98,1.04,2.34,1.72,3.76,1.72,1.79,0,2.85-.91,2.85-2.25,0-1.42-.99-1.87-2.28-2.44l-1.96-.88c-1.27-.55-2.76-1.53-2.76-3.57s1.82-3.68,4.29-3.68c1.62,0,3.06.71,4.02,1.72l-.92,1.13c-.83-.8-1.83-1.3-3.1-1.3-1.53,0-2.54.78-2.54,2.02,0,1.34,1.19,1.83,2.26,2.29l1.94.85c1.58.69,2.81,1.65,2.81,3.71,0,2.19-1.78,3.94-4.65,3.94-1.92,0-3.58-.79-4.77-2.06Z"/>
    </g>
    <g class="st2">
      <path class="st5" d="M119.81,60.44h-2.62v-.95h6.34v.95h-2.62v7.85h-1.1v-7.85Z"/>
      <path class="st5" d="M123.62,65.04c0-2.12,1.41-3.43,2.88-3.43,1.63,0,2.56,1.19,2.56,3.06,0,.23-.02.46-.05.63h-4.32c.08,1.38.91,2.27,2.13,2.27.61,0,1.12-.2,1.59-.52l.39.72c-.56.37-1.24.68-2.12.68-1.71,0-3.07-1.27-3.07-3.41ZM128.1,64.5c0-1.3-.58-2.01-1.58-2.01-.9,0-1.71.74-1.84,2.01h3.42Z"/>
      <path class="st5" d="M130.16,65.04c0-2.17,1.44-3.43,3.08-3.43.84,0,1.42.35,1.88.76l-.55.73c-.37-.34-.77-.58-1.27-.58-1.16,0-2.01,1.02-2.01,2.51s.8,2.49,1.98,2.49c.59,0,1.1-.29,1.5-.65l.47.74c-.58.52-1.3.83-2.07.83-1.71,0-3-1.25-3-3.41Z"/>
      <path class="st5" d="M136.64,58.74h1.08v2.61l-.04,1.34c.6-.59,1.25-1.08,2.13-1.08,1.35,0,1.96.89,1.96,2.55v4.13h-1.08v-3.98c0-1.21-.36-1.73-1.21-1.73-.66,0-1.11.34-1.75,1v4.72h-1.08v-9.54Z"/>
      <path class="st5" d="M143.81,61.77h.9l.09.94h.04c.61-.61,1.27-1.1,2.15-1.1,1.35,0,1.96.89,1.96,2.55v4.13h-1.08v-3.98c0-1.21-.36-1.73-1.21-1.73-.66,0-1.11.34-1.75,1v4.72h-1.08v-6.51Z"/>
      <path class="st5" d="M150.54,65.04c0-2.17,1.4-3.43,2.97-3.43s2.97,1.25,2.97,3.43-1.4,3.41-2.97,3.41-2.97-1.25-2.97-3.41ZM155.36,65.04c0-1.49-.75-2.51-1.85-2.51s-1.85,1.02-1.85,2.51.75,2.49,1.85,2.49,1.85-1,1.85-2.49Z"/>
      <path class="st5" d="M158.11,66.98v-8.24h1.08v8.32c0,.34.14.47.3.47.06,0,.12,0,.24-.03l.15.84c-.15.06-.34.1-.62.1-.81,0-1.15-.53-1.15-1.47Z"/>
      <path class="st5" d="M160.99,65.04c0-2.17,1.4-3.43,2.97-3.43s2.97,1.25,2.97,3.43-1.4,3.41-2.97,3.41-2.97-1.25-2.97-3.41ZM165.81,65.04c0-1.49-.75-2.51-1.85-2.51s-1.85,1.02-1.85,2.51.75,2.49,1.85,2.49,1.85-1,1.85-2.49Z"/>
      <path class="st5" d="M168.12,69.54c0-.56.35-1.08.94-1.47v-.05c-.33-.21-.57-.55-.57-1.07,0-.54.37-.97.71-1.21v-.05c-.42-.34-.83-.97-.83-1.75,0-1.42,1.1-2.32,2.4-2.32.35,0,.67.07.91.16h2.24v.85h-1.32c.3.3.52.79.52,1.34,0,1.39-1.04,2.26-2.35,2.26-.31,0-.66-.08-.95-.22-.23.2-.41.41-.41.77,0,.41.26.71,1.12.71h1.25c1.49,0,2.24.48,2.24,1.56,0,1.21-1.26,2.25-3.24,2.25-1.57,0-2.65-.62-2.65-1.75ZM172.95,69.19c0-.6-.45-.81-1.29-.81h-1.11c-.24,0-.55-.03-.83-.1-.46.33-.65.72-.65,1.09,0,.7.69,1.14,1.86,1.14,1.22,0,2.03-.65,2.03-1.33ZM172.13,63.93c0-.95-.61-1.52-1.36-1.52s-1.36.57-1.36,1.52.62,1.55,1.36,1.55,1.36-.6,1.36-1.55Z"/>
      <path class="st5" d="M174.8,70.96l.21-.88c.13.04.32.1.49.1.72,0,1.18-.59,1.45-1.4l.15-.48-2.57-6.52h1.12l1.31,3.6c.2.57.42,1.23.62,1.83h.05c.18-.59.36-1.26.54-1.83l1.14-3.6h1.06l-2.42,7.05c-.45,1.29-1.11,2.27-2.4,2.27-.3,0-.54-.05-.75-.13Z"/>
      <path class="st5" d="M186.14,60.44h-2.62v-.95h6.34v.95h-2.62v7.85h-1.1v-7.85Z"/>
      <path class="st5" d="M189.94,66.59c0-1.42,1.2-2.13,3.94-2.43,0-.84-.28-1.65-1.32-1.65-.74,0-1.41.36-1.91.7l-.42-.75c.59-.39,1.49-.85,2.52-.85,1.56,0,2.23,1.06,2.23,2.68v4h-.9l-.09-.78h-.04c-.61.52-1.32.94-2.12.94-1.07,0-1.88-.68-1.88-1.85ZM193.88,66.7v-1.81c-2.15.26-2.87.8-2.87,1.63,0,.74.5,1.04,1.12,1.04s1.13-.31,1.75-.86Z"/>
      <path class="st5" d="M196.78,59.72c0-.43.33-.71.75-.71s.75.28.75.71-.33.71-.75.71-.75-.3-.75-.71ZM196.98,61.77h1.08v6.51h-1.08v-6.51Z"/>
      <path class="st5" d="M200.22,66.98v-8.24h1.08v8.32c0,.34.14.47.3.47.06,0,.12,0,.24-.03l.15.84c-.15.06-.34.1-.62.1-.81,0-1.15-.53-1.15-1.47Z"/>
      <path class="st5" d="M203.1,65.04c0-2.17,1.4-3.43,2.97-3.43s2.97,1.25,2.97,3.43-1.4,3.41-2.97,3.41-2.97-1.25-2.97-3.41ZM207.92,65.04c0-1.49-.75-2.51-1.85-2.51s-1.85,1.02-1.85,2.51.75,2.49,1.85,2.49,1.85-1,1.85-2.49Z"/>
      <path class="st5" d="M210.72,61.77h.9l.09,1.19h.04c.45-.83,1.1-1.35,1.82-1.35.28,0,.48.04.68.13l-.2.97c-.22-.07-.37-.11-.62-.11-.54,0-1.19.4-1.62,1.5v4.18h-1.08v-6.51Z"/>
      <path class="st5" d="M214.69,65.04c0-2.12,1.41-3.43,2.88-3.43,1.63,0,2.56,1.19,2.56,3.06,0,.23-.02.46-.05.63h-4.32c.08,1.38.91,2.27,2.13,2.27.61,0,1.12-.2,1.59-.52l.39.72c-.56.37-1.24.68-2.12.68-1.71,0-3.07-1.27-3.07-3.41ZM219.17,64.5c0-1.3-.58-2.01-1.58-2.01-.9,0-1.71.74-1.84,2.01h3.42Z"/>
      <path class="st5" d="M221.24,65.04c0-2.11,1.31-3.43,2.77-3.43.75,0,1.23.29,1.8.75l-.05-1.12v-2.51h1.08v9.54h-.9l-.09-.77h-.04c-.5.51-1.18.93-1.94.93-1.6,0-2.64-1.24-2.64-3.41ZM225.76,66.63v-3.41c-.55-.5-1.04-.68-1.56-.68-1.02,0-1.84,1-1.84,2.49,0,1.56.64,2.49,1.76,2.49.59,0,1.11-.29,1.64-.89Z"/>
    </g>
    <line class="st4" x1="117.19" y1="57.17" x2="227.93" y2="57.17"/>
  </g>
</svg>